<?xml version="1.0" encoding="UTF-8" standalone="no"?>
<!-- Created with Inkscape (http://www.inkscape.org/) -->

<svg
   width="200mm"
   height="200mm"
   viewBox="0 0 200 200"
   version="1.1"
   id="svg1"
   inkscape:version="1.3.2 (091e20ef0f, 2023-11-25, custom)"
   sodipodi:docname="Ring.svg"
   inkscape:export-filename="Ring.png"
   inkscape:export-xdpi="65.019997"
   inkscape:export-ydpi="65.019997"
   xmlns:inkscape="http://www.inkscape.org/namespaces/inkscape"
   xmlns:sodipodi="http://sodipodi.sourceforge.net/DTD/sodipodi-0.dtd"
   xmlns="http://www.w3.org/2000/svg"
   xmlns:svg="http://www.w3.org/2000/svg">
  <sodipodi:namedview
     id="namedview1"
     pagecolor="#333333"
     bordercolor="#000000"
     borderopacity="0.25"
     inkscape:showpageshadow="2"
     inkscape:pageopacity="0.0"
     inkscape:pagecheckerboard="0"
     inkscape:deskcolor="#1a1a1a"
     inkscape:document-units="mm"
     showgrid="true"
     inkscape:zoom="0.82653101"
     inkscape:cx="257.09864"
     inkscape:cy="354.49365"
     inkscape:window-width="1920"
     inkscape:window-height="1004"
     inkscape:window-x="0"
     inkscape:window-y="0"
     inkscape:window-maximized="1"
     inkscape:current-layer="layer1">
    <inkscape:grid
       id="grid1"
       units="mm"
       originx="0"
       originy="0"
       spacingx="1"
       spacingy="1"
       empcolor="#000000"
       empopacity="0.2"
       color="#000000"
       opacity="0.05098039"
       empspacing="10"
       dotted="false"
       gridanglex="30"
       gridanglez="30"
       visible="true" />
  </sodipodi:namedview>
  <defs
     id="defs1" />
  <g
     inkscape:label="Layer 1"
     inkscape:groupmode="layer"
     id="layer1">
    <path
       id="path8"
       style="fill:#ffffff;stroke-width:0.0254;-inkscape-stroke:none"
       d="M 149.98671 13.420369 L 129.99982 48.038411 A 60 60 0 0 1 160.00005 100.0001 L 200.0002 100.0001 A 100 100 0 0 0 149.98671 13.420369 z M 50.11322 13.593486 A 100 100 0 0 0 0 100.0001 L 40.000142 100.0001 A 60 60 0 0 1 69.999862 48.038411 L 50.11322 13.593486 z M 69.999862 151.96178 L 50.11322 186.40671 A 100 100 0 0 0 100.0001 200.0002 A 100 100 0 0 0 149.98671 186.57983 L 130.00033 151.96178 A 60 60 0 0 1 100.0001 160.00005 A 60 60 0 0 1 69.999862 151.96178 z " />
  </g>
</svg>
